<svg
  xmlns="http://www.w3.org/2000/svg"
  xmlns:xlink="http://www.w3.org/1999/xlink"
  version="1.1"
  view-box="0 0 48 48"
  width="48px"
  height="48px"
>
  <g fill-rule="nonzero" fill="none">
    <path
      d="M31.141 3.161A4.277 4.277 0 0 0 25.795.429a4.277 4.277 0 0 0-2.732 5.347L34.03 39.493c.742 2.068 3.005 3.239 5.151 2.614 2.264-.663 3.63-3.044 2.888-5.229 0-.078-10.927-33.717-10.927-33.717z"
      fill="#ECB32D"
    />
    <path
      d="M14.166 8.663A4.277 4.277 0 0 0 8.82 5.932a4.277 4.277 0 0 0-2.732 5.346l10.966 33.717c.741 2.068 3.005 3.24 5.15 2.615 2.264-.664 3.63-3.044 2.889-5.23 0-.078-10.927-33.717-10.927-33.717z"
      fill="#63C1A0"
    />
    <path
      d="M44.956 31.063a4.277 4.277 0 0 0 2.732-5.346 4.277 4.277 0 0 0-5.347-2.732L8.585 33.99c-2.068.742-3.239 3.005-2.614 5.151.663 2.264 3.044 3.63 5.229 2.888.078 0 33.756-10.966 33.756-10.966z"
      fill="#E01A59"
    />
    <path
      d="M15.61 40.624c2.185-.702 5.034-1.639 8.078-2.614-.703-2.186-1.64-5.034-2.615-8.078l-8.078 2.614 2.615 8.078z"
      fill="#331433"
    />
    <path
      d="M32.624 35.083c3.044-.976 5.893-1.912 8.078-2.615-.702-2.185-1.639-5.034-2.614-8.078l-8.078 2.615 2.614 8.078z"
      fill="#D62027"
    />
    <path
      d="M39.415 14.088a4.277 4.277 0 0 0 2.731-5.347A4.277 4.277 0 0 0 36.8 6.01L3.083 16.976c-2.068.741-3.24 3.004-2.615 5.15.664 2.264 3.044 3.63 5.23 2.889.078 0 33.717-10.927 33.717-10.927z"
      fill="#89D3DF"
    />
    <path
      d="M10.107 23.61c2.186-.703 5.034-1.64 8.078-2.615-.975-3.044-1.912-5.893-2.614-8.078l-8.078 2.615 2.614 8.078z"
      fill="#258B74"
    />
    <path
      d="M27.083 18.107c3.044-.975 5.893-1.912 8.078-2.614-.976-3.044-1.912-5.893-2.615-8.078l-8.078 2.614 2.615 8.078z"
      fill="#819C3C"
    />
  </g>
</svg>
