<svg width="1329" height="1126" xmlns="http://www.w3.org/2000/svg">
  <g fill="none" fill-rule="evenodd">
    <path d="M332 561.5c0 27.6389-9.6736 51.132-29.0208 70.4792C283.6319 651.3264 260.1389 661 232.5 661c-27.6389 0-51.132-9.6736-70.4792-29.0208C142.6736 612.6319 133 589.1389 133 561.5c0-27.6389 9.6736-51.132 29.0208-70.4792C181.3681 471.6736 204.8611 462 232.5 462c27.6389 0 51.132 9.6736 70.4792 29.0208C322.3264 510.3681 332 533.8611 332 561.5zm604 305.3889V1070H46v-41.3333l166.9218-166.8625c19.5252-19.5203 51.1766-19.5203 70.7019 0l65.7854 65.7514 274.145-274.052c27.3353-27.3284 71.6474-27.3284 98.9826 0L936 866.889zM912.4038 395H82.5962c-4.4948 0-8.3846 1.6427-11.6692 4.9281C67.6423 403.2135 66 407.1041 66 411.6v630.8c0 4.4958 1.6423 8.3865 4.927 11.6719 3.2846 3.2854 7.1744 4.9281 11.6692 4.9281h829.8076c4.4948 0 8.3846-1.6427 11.6692-4.9281 3.2847-3.2854 4.927-7.176 4.927-11.6719V411.6c0-4.4958-1.6423-8.3865-4.927-11.6719-3.2846-3.2854-7.1744-4.9281-11.6692-4.9281zM996 412.0208v630.9584c0 22.8307-8.127 42.3752-24.3813 58.6334C955.3646 1117.871 935.825 1126 913 1126H83c-22.825 0-42.3646-8.1291-58.6187-24.3874C8.127 1085.3544 0 1065.81 0 1042.9792V412.0208c0-22.8307 8.127-42.3752 24.3813-58.6334C40.6354 337.129 60.175 329 83 329h830c22.825 0 42.3646 8.1291 58.6187 24.3874C987.873 369.6456 996 389.19 996 412.0208z" fill="#000" fill-rule="nonzero"/>
    <circle fill="#FFF" cx="961" cy="368" r="368"/>
    <path d="M1274 367c0 56.967-14.0373 109.5048-42.112 157.6133-28.0746 48.1085-66.1662 86.2-114.2747 114.2747C1069.5048 666.9627 1016.967 681 960 681c-56.967 0-109.5048-14.0373-157.6133-42.112-48.1085-28.0746-86.2-66.1662-114.2747-114.2747C660.0373 476.5048 646 423.967 646 367c0-56.967 14.0373-109.5048 42.112-157.6133 28.0746-48.1085 66.1662-86.2 114.2747-114.2747C850.4952 67.0373 903.033 53 960 53c56.967 0 109.5048 14.0373 157.6133 42.112 48.1085 28.0746 86.2 66.1662 114.2747 114.2747C1259.9627 257.4952 1274 310.033 1274 367z" fill="#000" fill-rule="nonzero"/>
    <path d="M934.6 344.6v-85.7521c0-6.1032 1.1603-10.9844 3.3392-15.0585 2.1788-4.074 5.3762-7.2714 9.4502-9.4502 4.0741-2.1789 8.9553-3.3392 15.0585-3.3392h1.1042c6.1032 0 10.9844 1.1603 15.0585 3.3392 4.074 2.1788 7.2714 5.3762 9.4502 9.4502 2.1789 4.0741 3.3392 8.9553 3.3392 15.0585V344.6h85.7521c6.1032 0 10.9844 1.1603 15.0585 3.3392 4.074 2.1788 7.2714 5.3762 9.4502 9.4502 2.1789 4.0741 3.3392 8.9553 3.3392 15.0585v1.1042c0 6.1032-1.1603 10.9844-3.3392 15.0585-2.1788 4.074-5.3762 7.2714-9.4502 9.4502-4.0741 2.1789-8.9553 3.3392-15.0585 3.3392H991.4v85.7521c0 6.1032-1.1603 10.9844-3.3392 15.0585-2.1788 4.074-5.3762 7.2714-9.4502 9.4502-4.0741 2.1789-8.9553 3.3392-15.0585 3.3392h-1.1042c-6.1032 0-10.9844-1.1603-15.0585-3.3392-4.074-2.1788-7.2714-5.3762-9.4502-9.4502-2.1789-4.0741-3.3392-8.9553-3.3392-15.0585V401.4h-85.7521c-6.1032 0-10.9844-1.1603-15.0585-3.3392-4.074-2.1788-7.2714-5.3762-9.4502-9.4502-2.1789-4.0741-3.3392-8.9553-3.3392-15.0585v-1.1042c0-6.1032 1.1603-10.9844 3.3392-15.0585 2.1788-4.074 5.3762-7.2714 9.4502-9.4502 4.0741-2.1789 8.9553-3.3392 15.0585-3.3392H934.6z" fill="#FFF"/>
  </g>
</svg>
