<svg xmlns="http://www.w3.org/2000/svg" width="1024" height="1024">
  <path d="M146 464q0-20 10-37t27-27 37-10q30 0 51 21t21 52-21 52-51 21-52-21-22-51zm294-220q-2 12-2 24 0 38 10 74H122q-10 0-17 7t-7 17v438q0 6 2 10t5 8 7 5 10 1h536q6 0 12-3t9-9 3-12V576q36 10 74 10 12 0 24-2v244q0 42-28 70t-70 28H98q-42 0-70-28T0 828V342q0-40 29-69t69-29h342zm-96 474l136-146q12-14 32-14t32 14l204 222q12 14 12 35t-14 35l-64 62H244v-18L98 926l-54-26q-18-10-20-26t12-30l196-178q14-12 35-12t33 16zm436-474v-74q0-6-3-12t-9-9-12-3-12 3-9 9-3 12v74h-74q-10 0-17 7t-7 17q0 6 3 12t9 9 12 3h74v74q0 10 7 17t17 7 17-7 7-17v-74h74q10 0 17-7t7-17-7-17-17-7h-74zm-24 292q-112 0-190-78t-78-189 78-190T755 0t190 79 79 189q0 54-21 104t-57 86-86 57-104 21z"/>
</svg>
